<?xml version="1.0" standalone="no"?>
<!DOCTYPE svg PUBLIC "-//W3C//DTD SVG 20010904//EN"
 "http://www.w3.org/TR/2001/REC-SVG-20010904/DTD/svg10.dtd">
<svg version="1.0" xmlns="http://www.w3.org/2000/svg"
 width="50.000000pt" height="50.000000pt" viewBox="0 0 50.000000 50.000000"
 preserveAspectRatio="xMidYMid meet">

<g transform="translate(0.000000,50.000000) scale(0.100000,-0.100000)"
fill="#000000" stroke="none">
<path d="M90 480 c0 -11 5 -20 10 -20 6 0 10 5 10 10 0 6 65 10 175 10 l175 0
0 -115 c0 -106 -1 -115 -19 -115 -12 0 -18 7 -17 18 1 14 -8 18 -46 20 -43 3
-48 1 -48 -17 0 -19 -6 -21 -60 -21 -33 0 -60 -4 -60 -10 0 -5 57 -11 138 -13
l137 -3 -137 -2 c-84 -1 -138 -6 -138 -12 0 -6 55 -10 145 -10 l145 0 0 25 c0
14 -4 25 -10 25 -6 0 -10 48 -10 125 l0 125 -195 0 c-188 0 -195 -1 -195 -20z"/>
<path d="M80 430 c-25 -25 -26 -54 -2 -78 18 -18 18 -19 -2 -28 -18 -8 -21
-19 -24 -79 -2 -46 -8 -76 -19 -87 -10 -11 -13 -26 -9 -43 4 -16 1 -34 -9 -48
-8 -12 -15 -32 -15 -44 l0 -23 250 0 250 0 0 23 c0 13 -7 32 -15 43 -9 12 -12
31 -9 50 9 49 -35 80 -76 54 -10 -6 -15 -25 -15 -52 0 -32 -4 -43 -15 -43 -11
0 -15 11 -15 43 0 43 -14 62 -45 62 -31 0 -45 -19 -45 -62 0 -32 -4 -43 -15
-43 -11 0 -14 9 -12 36 2 25 -3 41 -18 54 -14 13 -20 31 -20 61 0 40 3 45 33
57 37 16 92 89 83 112 -9 24 -32 18 -64 -19 -21 -24 -41 -36 -72 -41 l-42 -7
21 21 c12 12 21 30 21 41 0 26 -34 60 -60 60 -11 0 -29 -9 -40 -20z m70 -15
c15 -18 10 -45 -12 -59 -35 -22 -74 27 -48 59 16 19 44 19 60 0z m150 -31 c0
-17 -58 -77 -87 -89 -31 -13 -33 -17 -33 -63 0 -36 -5 -54 -20 -67 -15 -13
-20 -29 -18 -54 2 -27 -1 -36 -12 -36 -10 0 -14 9 -13 25 3 42 -6 68 -27 75
-19 6 -21 14 -18 68 l3 62 75 7 c69 7 77 10 105 42 28 32 45 43 45 30z m-205
-254 c0 -18 -6 -26 -23 -28 -13 -2 -25 3 -28 12 -10 26 4 48 28 44 17 -2 23
-10 23 -28z m120 0 c0 -18 -6 -26 -23 -28 -13 -2 -25 3 -28 12 -10 26 4 48 28
44 17 -2 23 -10 23 -28z m120 0 c0 -18 -6 -26 -23 -28 -24 -4 -38 18 -28 44 3
9 15 14 28 12 17 -2 23 -10 23 -28z m120 0 c0 -18 -6 -26 -23 -28 -13 -2 -25
3 -28 12 -10 26 4 48 28 44 17 -2 23 -10 23 -28z m-351 -66 c31 -30 20 -44
-34 -44 -37 0 -50 4 -50 14 0 20 28 46 50 46 10 0 26 -7 34 -16z m120 0 c31
-30 20 -44 -34 -44 -54 0 -65 14 -34 44 20 20 48 20 68 0z m120 0 c31 -30 20
-44 -34 -44 -54 0 -65 14 -34 44 20 20 48 20 68 0z m120 0 c31 -30 20 -44 -34
-44 -37 0 -50 4 -50 14 0 20 28 46 50 46 10 0 26 -7 34 -16z"/>
</g>
</svg>
