<?xml version="1.0" standalone="no"?>
<!DOCTYPE svg PUBLIC "-//W3C//DTD SVG 20010904//EN"
 "http://www.w3.org/TR/2001/REC-SVG-20010904/DTD/svg10.dtd">
<svg version="1.0" xmlns="http://www.w3.org/2000/svg"
 width="50.000000pt" height="50.000000pt" viewBox="0 0 50.000000 50.000000"
 preserveAspectRatio="xMidYMid meet">

<g transform="translate(0.000000,50.000000) scale(0.100000,-0.100000)"
fill="#000000" stroke="none">
<path d="M40 250 l0 -210 125 0 c77 0 125 4 125 10 0 6 -45 10 -115 10 l-115
0 0 190 0 190 190 0 190 0 0 -115 c0 -70 4 -115 10 -115 6 0 10 48 10 125 l0
125 -210 0 -210 0 0 -210z"/>
<path d="M184 395 c-14 -35 3 -46 68 -43 60 3 63 4 63 28 0 24 -3 25 -63 28
-49 2 -64 0 -68 -13z m116 -15 c0 -5 -22 -10 -50 -10 -27 0 -50 5 -50 10 0 6
23 10 50 10 28 0 50 -4 50 -10z"/>
<path d="M351 186 c-87 -48 -50 -186 49 -186 51 0 100 49 100 99 0 75 -83 124
-149 87z m104 -31 c50 -49 15 -135 -55 -135 -41 0 -80 39 -80 80 0 70 86 105
135 55z"/>
<path d="M387 149 c-23 -13 -22 -36 3 -51 11 -7 20 -18 20 -25 0 -17 -17 -17
-23 0 -2 6 -8 9 -13 4 -12 -12 20 -39 39 -31 24 9 22 51 -3 59 -11 3 -20 11
-20 16 0 6 9 7 20 4 22 -7 27 7 7 23 -8 7 -18 7 -30 1z"/>
</g>
</svg>
