<?xml version="1.0" standalone="no"?>
<!DOCTYPE svg PUBLIC "-//W3C//DTD SVG 20010904//EN"
 "http://www.w3.org/TR/2001/REC-SVG-20010904/DTD/svg10.dtd">
<svg version="1.0" xmlns="http://www.w3.org/2000/svg"
 width="64.000000pt" height="64.000000pt" viewBox="0 0 64.000000 64.000000"
 preserveAspectRatio="xMidYMid meet">

<g transform="translate(0.000000,64.000000) scale(0.100000,-0.100000)"
fill="#000000" stroke="none">
<path d="M172 598 c-7 -7 -12 -28 -12 -47 l0 -35 -43 42 c-37 36 -46 41 -56
29 -9 -12 36 -63 245 -281 140 -146 259 -266 264 -266 4 0 13 7 20 16 11 13 4
24 -48 77 l-62 63 0 195 c0 138 -3 198 -12 207 -17 17 -279 17 -296 0z m131
-45 c18 -17 19 -17 32 0 8 12 26 17 59 17 l46 0 0 -167 0 -168 -120 120 c-120
119 -120 120 -120 167 l0 48 42 0 c25 0 49 -7 61 -17z"/>
<path d="M160 229 c0 -123 4 -179 12 -187 17 -17 279 -17 296 0 18 18 15 43
-8 63 -20 18 -20 17 -20 -8 l0 -27 -120 0 -120 0 0 148 c0 136 -2 150 -20 167
-20 18 -20 17 -20 -156z"/>
</g>
</svg>
