<?xml version="1.0" standalone="no"?>
<!DOCTYPE svg PUBLIC "-//W3C//DTD SVG 20010904//EN"
 "http://www.w3.org/TR/2001/REC-SVG-20010904/DTD/svg10.dtd">
<svg version="1.0" xmlns="http://www.w3.org/2000/svg"
 width="50.000000pt" height="50.000000pt" viewBox="0 0 50.000000 50.000000"
 preserveAspectRatio="xMidYMid meet">

<g transform="translate(0.000000,50.000000) scale(0.100000,-0.100000)"
fill="#000000" stroke="none">
<path d="M195 455 c-30 -29 -32 -69 -5 -110 11 -16 20 -40 20 -52 0 -29 33
-47 60 -33 11 6 20 21 20 33 0 12 9 36 20 52 11 17 20 43 20 58 0 38 -40 77
-80 77 -19 0 -40 -9 -55 -25z m95 -15 c11 -11 20 -28 20 -37 0 -31 -38 -83
-60 -83 -22 0 -60 52 -60 83 0 23 35 57 60 57 11 0 29 -9 40 -20z m-20 -150
c0 -5 -9 -10 -20 -10 -11 0 -20 5 -20 10 0 6 9 10 20 10 11 0 20 -4 20 -10z"/>
<path d="M92 254 c-16 -11 -22 -25 -22 -54 0 -21 5 -42 10 -45 15 -9 12 -55
-3 -55 -18 0 -57 -38 -57 -55 0 -13 35 -15 231 -15 214 0 230 1 227 17 -2 10
-20 29 -41 42 -37 24 -46 48 -26 68 6 6 9 27 7 47 -2 28 -10 42 -31 54 -25 15
-30 15 -55 2 -21 -12 -28 -24 -30 -54 -2 -21 1 -43 7 -49 15 -15 14 -57 -2
-57 -7 0 -23 -9 -34 -20 -22 -20 -22 -20 -62 7 -39 25 -52 55 -31 68 5 3 10
23 10 44 0 30 -6 42 -25 55 -30 20 -45 20 -73 0z m59 -14 c23 -13 25 -50 4
-90 -18 -35 -11 -58 21 -66 13 -3 28 -12 35 -20 10 -12 -2 -14 -75 -14 -89 0
-107 9 -57 30 38 15 45 34 26 70 -18 35 -19 72 -3 88 15 15 24 15 49 2z m230
0 c23 -13 25 -50 4 -90 -18 -35 -11 -58 21 -66 13 -3 28 -12 35 -20 10 -12 -2
-14 -75 -14 -89 0 -107 9 -57 30 38 15 45 34 26 70 -18 35 -19 72 -3 88 15 15
24 15 49 2z"/>
</g>
</svg>
