<?xml version="1.0" standalone="no"?>
<!DOCTYPE svg PUBLIC "-//W3C//DTD SVG 20010904//EN"
 "http://www.w3.org/TR/2001/REC-SVG-20010904/DTD/svg10.dtd">
<svg version="1.0" xmlns="http://www.w3.org/2000/svg"
 width="50.000000pt" height="50.000000pt" viewBox="0 0 50.000000 50.000000"
 preserveAspectRatio="xMidYMid meet">

<g transform="translate(0.000000,50.000000) scale(0.100000,-0.100000)"
fill="#000000" stroke="none">
<path d="M270 398 c-40 -46 -76 -84 -79 -86 -4 -1 -28 16 -55 38 -54 45 -62
47 -94 24 -21 -14 -22 -23 -22 -129 l0 -114 30 -16 c33 -17 52 -12 85 25 47
52 53 50 136 -41 l77 -84 66 32 66 33 0 170 0 170 -60 30 c-33 16 -63 30 -68
30 -5 0 -42 -37 -82 -82z m90 9 c0 -52 -1 -53 -57 -100 -56 -48 -56 -48 -76
-28 -20 19 -20 20 53 100 40 45 74 81 76 81 2 0 4 -24 4 -53z m100 -157 l0
-155 -40 -22 -40 -21 0 198 0 198 40 -21 40 -22 0 -155z m-237 5 l137 -110 -1
-55 0 -55 -57 61 c-183 196 -241 262 -235 268 10 9 6 12 156 -109z m-153 -10
c0 -52 -4 -76 -15 -85 -13 -11 -15 0 -15 85 0 85 2 96 15 85 11 -9 15 -33 15
-85z m290 -1 l0 -76 -40 32 c-22 17 -42 36 -46 41 -6 10 62 78 79 79 4 0 7
-34 7 -76z m-230 6 c0 -4 -9 -18 -20 -31 l-19 -24 -1 49 c0 48 0 49 20 31 11
-10 20 -21 20 -25z m34 -36 c3 -9 6 -17 6 -18 0 -10 -92 -76 -100 -71 -9 6 68
105 81 105 4 0 10 -7 13 -16z"/>
</g>
</svg>
